<svg width="30" height="31" viewBox="0 0 30 31" fill="none" xmlns="http://www.w3.org/2000/svg">
<path d="M24.8893 29.9655L24.8728 29.9682L24.7663 30.0162L24.7363 30.0217L24.7153 30.0162L24.6088 29.9682C24.5928 29.9636 24.5808 29.9659 24.5728 29.9751L24.5668 29.9888L24.5413 30.5753L24.5488 30.6027L24.5638 30.6205L24.7198 30.7219L24.7423 30.7274L24.7603 30.7219L24.9163 30.6205L24.9343 30.5986L24.9403 30.5753L24.9148 29.9901C24.9108 29.9755 24.9023 29.9673 24.8893 29.9655ZM25.2868 29.8106L25.2673 29.8134L24.9898 29.9408L24.9748 29.9545L24.9703 29.9696L24.9973 30.5589L25.0048 30.5753L25.0168 30.5849L25.3183 30.7123C25.3373 30.7169 25.3518 30.7132 25.3618 30.7014L25.3678 30.6822L25.3168 29.8408C25.3118 29.8243 25.3018 29.8143 25.2868 29.8106ZM24.2143 29.8134C24.2077 29.8097 24.1998 29.8085 24.1922 29.81C24.1847 29.8116 24.1781 29.8157 24.1738 29.8216L24.1648 29.8408L24.1138 30.6822C24.1148 30.6986 24.1233 30.7096 24.1393 30.7151L24.1618 30.7123L24.4633 30.5849L24.4783 30.5739L24.4843 30.5589L24.5098 29.9696L24.5053 29.9531L24.4903 29.9394L24.2143 29.8134Z" fill="black" fill-opacity="0.81"/>
<path d="M17.25 28.088C24.4665 27.0959 30 21.4074 30 14.5376C30 6.96888 23.2845 0.833618 15 0.833618C6.7155 0.833618 0 6.96888 0 14.5376C0 21.4074 5.5335 27.0972 12.75 28.088V18.6488H10.5C9.90326 18.6488 9.33097 18.4322 8.90901 18.0467C8.48705 17.6612 8.25 17.1383 8.25 16.5932C8.25 16.048 8.48705 15.5251 8.90901 15.1396C9.33097 14.7541 9.90326 14.5376 10.5 14.5376H12.75V11.7968C12.75 10.5247 13.3031 9.30472 14.2877 8.40522C15.2723 7.50573 16.6076 7.0004 18 7.0004H18.75C19.3467 7.0004 19.919 7.21697 20.341 7.60247C20.7629 7.98796 21 8.51081 21 9.05599C21 9.60117 20.7629 10.124 20.341 10.5095C19.919 10.895 19.3467 11.1116 18.75 11.1116H18C17.8011 11.1116 17.6103 11.1838 17.4697 11.3123C17.329 11.4408 17.25 11.6151 17.25 11.7968V14.5376H19.5C20.0967 14.5376 20.669 14.7541 21.091 15.1396C21.5129 15.5251 21.75 16.048 21.75 16.5932C21.75 17.1383 21.5129 17.6612 21.091 18.0467C20.669 18.4322 20.0967 18.6488 19.5 18.6488H17.25V28.088Z" fill="black"/>
</svg>
