<svg width="30" height="29" viewBox="0 0 30 29" fill="none" xmlns="http://www.w3.org/2000/svg">
<path d="M15 0.833618C6.72 0.833618 0 6.97299 0 14.5376C0 22.1021 6.72 28.2415 15 28.2415C23.28 28.2415 30 22.1021 30 14.5376C30 6.97299 23.28 0.833618 15 0.833618ZM21.96 10.1523C21.735 12.3175 20.76 17.5798 20.265 20.0054C20.055 21.0332 19.635 21.3758 19.245 21.417C18.375 21.4855 17.715 20.8962 16.875 20.3892C15.555 19.5943 14.805 19.101 13.53 18.3336C12.045 17.4428 13.005 16.9495 13.86 16.1546C14.085 15.9491 17.925 12.7561 18 12.4683C18.0104 12.4247 18.009 12.3794 17.996 12.3364C17.9829 12.2935 17.9585 12.254 17.925 12.2216C17.835 12.1531 17.715 12.1805 17.61 12.1942C17.475 12.2216 15.375 13.4961 11.28 16.0176C10.68 16.3876 10.14 16.5795 9.66 16.5658C9.12 16.552 8.1 16.2917 7.335 16.0587C6.39 15.7846 5.655 15.6339 5.715 15.1542C5.745 14.9076 6.12 14.6609 6.825 14.4005C11.205 12.6601 14.115 11.509 15.57 10.9608C19.74 9.37118 20.595 9.0971 21.165 9.0971C21.285 9.0971 21.57 9.12451 21.75 9.26155C21.9 9.37118 21.945 9.52192 21.96 9.63155C21.945 9.71378 21.975 9.96045 21.96 10.1523Z" fill="black"/>
</svg>
