<svg width="30" height="23" viewBox="0 0 30 23" fill="none" xmlns="http://www.w3.org/2000/svg">
<path d="M15.3668 0.573975C16.1678 0.578086 18.1719 0.595902 20.302 0.674018L21.0581 0.704168C23.2017 0.795989 25.3438 0.954963 26.4073 1.22494C27.8249 1.58949 28.9379 2.65023 29.3145 3.99602C29.9145 6.13395 29.9895 10.3029 29.9985 11.3129L30 11.5212V11.7597C29.9895 12.7697 29.9145 16.9401 29.3145 19.0766C28.9334 20.4265 27.8189 21.4886 26.4073 21.8477C25.3438 22.1177 23.2017 22.2766 21.0581 22.3685L20.302 22.4C18.1719 22.4767 16.1678 22.4959 15.3668 22.4986L15.0142 22.5H14.6317C12.9366 22.4904 5.84729 22.4205 3.59118 21.8477C2.17511 21.4831 1.06055 20.4224 0.684034 19.0766C0.0840043 16.9387 0.00900045 12.7697 0 11.7597V11.3129C0.00900045 10.3029 0.0840043 6.13258 0.684034 3.99602C1.06505 2.64612 2.17961 1.58401 3.59268 1.22632C5.84729 0.652091 12.9381 0.582197 14.6332 0.573975H15.3668ZM11.9991 6.74106V16.3343L20.9995 11.5377L11.9991 6.74106Z" fill="black"/>
</svg>
